<?xml version="1.0" encoding="utf-8"?>
<!-- Generator: Adobe Illustrator 20.1.0, SVG Export Plug-In . SVG Version: 6.00 Build 0)  -->
<svg version="1.1" id="Capa_1" xmlns="http://www.w3.org/2000/svg" xmlns:xlink="http://www.w3.org/1999/xlink" x="0px" y="0px"
	 viewBox="0 0 1920 840" style="enable-background:new 0 0 1920 840;" xml:space="preserve">
<style type="text/css">
	.st0{fill-rule:evenodd;clip-rule:evenodd;fill:#333B48;}
	.st1{fill-rule:evenodd;clip-rule:evenodd;fill:#FFFFFF;}
	.st2{opacity:0.3;fill-rule:evenodd;clip-rule:evenodd;fill:#FFFFFF;}
	.st3{opacity:0.1;fill-rule:evenodd;clip-rule:evenodd;fill:#FFFFFF;}
	.st4{fill-rule:evenodd;clip-rule:evenodd;fill:#354E70;}
	.st5{fill-rule:evenodd;clip-rule:evenodd;fill:#5D8BA3;}
	.st6{fill-rule:evenodd;clip-rule:evenodd;fill:#3A5B6D;}
	.st7{fill-rule:evenodd;clip-rule:evenodd;fill:#B5A07F;}
	.st8{fill-rule:evenodd;clip-rule:evenodd;fill:#ECD8B7;}
	.st9{fill-rule:evenodd;clip-rule:evenodd;fill:#5D8BA3;stroke:#5D8BA3;stroke-width:0.5995;stroke-miterlimit:22.9256;}
	.st10{fill-rule:evenodd;clip-rule:evenodd;fill:#93BCCE;}
	.st11{fill-rule:evenodd;clip-rule:evenodd;fill:#F7EBDA;}
	.st12{fill-rule:evenodd;clip-rule:evenodd;fill:#719FB5;}
	.st13{fill:#A58C66;}
	.st14{fill-rule:evenodd;clip-rule:evenodd;fill:#96BB51;}
	.st15{fill-rule:evenodd;clip-rule:evenodd;fill:#B5D970;}
	.st16{fill:#647279;}
	.st17{fill:#FFFFFF;}
	.st18{fill-rule:evenodd;clip-rule:evenodd;fill:#D46850;}
	.st19{fill-rule:evenodd;clip-rule:evenodd;fill:#AE4730;}
	.st20{fill-rule:evenodd;clip-rule:evenodd;fill:#3B484E;}
	.st21{fill-rule:evenodd;clip-rule:evenodd;fill:#91A1A8;}
	.st22{fill-rule:evenodd;clip-rule:evenodd;fill:#C5E9E1;}
	.st23{fill-rule:evenodd;clip-rule:evenodd;fill:#EDC034;}
</style>
<rect class="st0" width="1920" height="840"/>
<path class="st1" d="M1474.9,533.9c0-15.4-12.6-28-28-28c-3.6,0-7.1,0.7-10.3,2c-5-7.9-13.8-13.2-23.8-13.2c-15.4,0-28,12.6-28,28
	c0,1,0.1,2,0.2,2.9c-0.5-0.1-1.3-0.1-1.9-0.1c-7.6,0-14,6.2-14,13.8c0,0,0,0,0,0c-14,1.3-14,22.8,2,22.8c73,0,2.9,0,75.9,0
	c0,0,0,0,0,0C1462.3,561.9,1474.9,549.3,1474.9,533.9z"/>
<path class="st2" d="M1828.9,278.9c0-15.4-12.6-28-28-28c-3.6,0-7.1,0.7-10.3,2c-5-7.9-13.8-13.2-23.8-13.2c-15.4,0-28,12.6-28,28
	c0,1,0.1,2,0.2,2.9c-0.5-0.1-1.3-0.1-1.9-0.1c-7.6,0-14,6.2-14,13.8c0,0,0,0,0,0c-14,1.3-14,22.8,2,22.8c73,0,2.9,0,75.9,0
	c0,0,0,0,0,0C1816.3,306.9,1828.9,294.3,1828.9,278.9z"/>
<path class="st1" d="M1121,407c-1,0-1.6,0-2.3,0c0.1-1,0.2-2.1,0.2-3.2c0-13-10.6-23.6-23.6-23.6c-2.1,0-4.1,0.3-6.1,0.8
	c-3.8-11.3-14.5-19.4-27-19.4c-15.7,0-28.5,12.8-28.5,28.5c0,1,0,1.9,0.1,2.9c-0.1,0-0.3,0-0.4,0c-10.2,0-18.5,8.3-18.5,18.5
	s8.3,18.5,18.5,18.5c1.8,0,3.5-0.3,5.2-0.8c1.4,0.5,3,0.7,4.8,0.7c74.2,0,2.5,0,77.5,0C1137,430,1137,407,1121,407z"/>
<path class="st1" d="M441,480.4C441,480.4,441,480.4,441,480.4c0-7.8-6.4-14.2-14.2-14.2c-0.6,0-1.2,0-1.7,0.1c0.1-1,0.1-2,0.1-3
	c0-15.9-13-28.8-28.8-28.8c-10.3,0-19.3,5.4-24.4,13.6c-3.3-1.3-6.8-2-10.6-2c-15.9,0-28.8,12.9-28.8,28.8
	c0,15.9,12.9,28.9,28.8,28.9c0,0,0,0.1,0,0.1c75,0,3,0,78,0C455.8,504,456,481.8,441,480.4z"/>
<path class="st3" d="M163,303.4C163,303.4,163,303.4,163,303.4c0-7.8-6.4-14.2-14.2-14.2c-0.6,0-1.2,0-1.7,0.1c0.1-1,0.1-2,0.1-3
	c0-15.9-13-28.8-28.8-28.8c-10.3,0-19.3,5.4-24.4,13.6c-3.3-1.3-6.8-2-10.6-2c-15.9,0-28.8,12.9-28.8,28.8
	c0,15.9,12.9,28.9,28.8,28.9c0,0,0,0.1,0,0.1c75,0,3,0,78,0C177.8,327,178,304.8,163,303.4z"/>
<rect x="1200.5" y="457.4" class="st4" width="157.5" height="101.6"/>
<rect x="379.2" y="536.7" class="st5" width="17.5" height="65.1"/>
<rect x="387.9" y="536.7" class="st6" width="8.7" height="65.1"/>
<rect x="1200.5" y="435" class="st5" width="157.5" height="65.1"/>
<polygon class="st4" points="1279.2,443.9 1236,481.9 1322.5,481.9 "/>
<rect x="1200.5" y="559" class="st4" width="157.5" height="153.4"/>
<polygon class="st7" points="1279.2,453.1 1246.4,481.9 1312,481.9 "/>
<rect x="1200.5" y="674.5" class="st4" width="157.5" height="64"/>
<rect x="1200.5" y="660.2" class="st8" width="157.5" height="14.4"/>
<g>
	<rect x="1315.3" y="618.7" class="st9" width="27.6" height="29.6"/>
	<rect x="1265.4" y="618.7" class="st10" width="27.6" height="29.6"/>
	<rect x="1215.5" y="618.7" class="st5" width="27.6" height="29.6"/>
</g>
<g>
	<rect x="1315.3" y="576.1" class="st7" width="27.6" height="29.6"/>
	<rect x="1265.4" y="576.1" class="st11" width="27.6" height="29.6"/>
	<rect x="1215.5" y="576.1" class="st8" width="27.6" height="29.6"/>
</g>
<rect x="1265.4" y="674.5" class="st5" width="27.6" height="64"/>
<rect x="1315.3" y="674.5" class="st8" width="27.6" height="29.6"/>
<rect x="1215.5" y="674.5" class="st10" width="27.6" height="29.6"/>
<rect x="1044.8" y="592.3" class="st8" width="155.7" height="146.2"/>
<rect x="1044.8" y="520.5" class="st5" width="155.7" height="71.8"/>
<polygon class="st4" points="1122.7,539.4 1085.2,572.3 1079.4,577.4 1165.9,577.4 "/>
<polygon class="st10" points="1122.7,548.5 1089.9,577.4 1155.5,577.4 "/>
<rect x="1060" y="674.5" class="st5" width="27.6" height="64"/>
<rect x="1109.9" y="674.5" class="st10" width="27.6" height="29.6"/>
<rect x="1159.8" y="674.5" class="st5" width="27.6" height="29.6"/>
<rect x="1373.3" y="535.9" class="st4" width="30.5" height="79"/>
<rect x="1373.3" y="535.9" class="st5" width="15.2" height="79"/>
<rect x="887.3" y="413.1" class="st5" width="157.5" height="68.1"/>
<polygon class="st6" points="966.1,422.6 922.8,460.7 1009.3,460.7 "/>
<rect x="887.3" y="458.7" class="st6" width="157.5" height="253.8"/>
<polygon class="st5" points="966.1,431.8 933.3,460.7 968,468.8 998.9,460.7 "/>
<rect x="887.3" y="674.5" class="st5" width="157.5" height="64"/>
<rect x="1002.1" y="633.5" class="st7" width="27.6" height="29.6"/>
<rect x="952.3" y="633.5" class="st5" width="27.6" height="29.6"/>
<rect x="902.4" y="633.5" class="st5" width="27.6" height="29.6"/>
<rect x="952.3" y="680.1" class="st10" width="27.6" height="58.4"/>
<rect x="1002.1" y="680.1" class="st10" width="27.6" height="27"/>
<rect x="902.4" y="680.1" class="st8" width="27.6" height="27"/>
<rect x="933.3" y="460.7" class="st5" width="65.6" height="25.4"/>
<polygon class="st8" points="979.9,452.3 966.7,440.1 952.3,452.3 952.3,481.2 979.9,481.2 "/>
<polygon class="st6" points="887.3,738.5 731.7,738.5 731.7,560.6 731.7,560.6 731.7,560.6 809.5,492.1 887.3,560.6 887.3,560.6 
	887.3,560.6 "/>
<polygon class="st8" points="887.3,738.5 731.7,738.5 731.7,569.6 731.7,569.6 731.7,569.6 809.5,501.1 887.3,569.6 887.3,569.6 
	887.3,569.6 "/>
<path class="st12" d="M823.3,524.7l-13.2-12.2l-14.5,12.2c0,24.2,0,48.4,0,72.6h27.6C823.3,573.2,823.3,548.9,823.3,524.7z"/>
<rect x="795.7" y="680.1" class="st12" width="27.6" height="58.4"/>
<rect x="837.6" y="574.5" class="st11" width="27.6" height="22.8"/>
<polygon class="st10" points="864.3,562.8 837.6,538.1 837.6,562.8 "/>
<rect x="753.8" y="574.5" class="st7" width="27.6" height="22.8"/>
<polygon class="st12" points="754.7,562.8 781.4,538.1 781.4,562.8 "/>
<rect x="837.6" y="680.1" class="st11" width="27.6" height="22.8"/>
<rect x="753.8" y="680.1" class="st12" width="27.6" height="22.8"/>
<rect x="574.2" y="467.4" class="st6" width="157.5" height="65.1"/>
<polygon class="st5" points="652.9,477.2 609.7,515.3 696.2,515.3 "/>
<polygon class="st12" points="652.9,486.4 620.1,515.3 685.7,515.3 "/>
<rect x="574.2" y="532.4" class="st5" width="157.5" height="206.1"/>
<g>
	<rect x="689" y="604" class="st12" width="27.6" height="29.6"/>
	<rect x="639.1" y="604" class="st6" width="27.6" height="29.6"/>
	<rect x="589.2" y="604" class="st11" width="27.6" height="29.6"/>
</g>
<rect x="689" y="674.5" class="st8" width="27.6" height="64"/>
<rect x="639.1" y="674.5" class="st6" width="27.6" height="29.6"/>
<rect x="589.2" y="674.5" class="st12" width="27.6" height="29.6"/>
<rect x="1065.3" y="463.6" class="st5" width="17.5" height="65.1"/>
<rect x="1074.1" y="463.6" class="st4" width="8.7" height="65.1"/>
<polygon class="st5" points="574.2,602.8 482.5,602.8 482.5,533 482.5,533 482.5,533 528.4,487.6 574.2,533 574.2,533 574.2,533 "/>
<polygon class="st6" points="574.2,738.5 482.5,738.5 482.5,538.9 482.5,538.9 482.5,538.9 528.4,493.5 574.2,538.9 574.2,538.9 
	574.2,538.9 "/>
<path class="st11" d="M542.2,528.1l-13.8-13.7l-13.8,13.7c0,24.2,0,43,0,67.3h27.6C542.2,571.1,542.2,552.3,542.2,528.1z"/>
<rect x="514.5" y="680.1" class="st5" width="27.6" height="58.4"/>
<path class="st12" d="M542.2,602.8h-27.6c0,22.8,0,8.3,0,31.1h27.6C542.2,611.1,542.2,625.6,542.2,602.8z"/>
<path class="st10" d="M542.2,642.2h-27.6c0,22.8,0,8.3,0,31.1h27.6C542.2,650.5,542.2,665,542.2,642.2z"/>
<rect x="1358" y="660.2" class="st8" width="155.7" height="78.4"/>
<rect x="1358" y="596.2" class="st5" width="155.7" height="64"/>
<polygon class="st4" points="1435.8,607.2 1392.6,645.3 1479,645.3 "/>
<polygon class="st10" points="1435.8,616.4 1403,645.3 1468.6,645.3 "/>
<rect x="1373.1" y="674.5" class="st5" width="27.6" height="64"/>
<rect x="1423" y="674.5" class="st11" width="27.6" height="29.6"/>
<rect x="1469.2" y="674.5" class="st7" width="27.6" height="29.6"/>
<rect x="366.9" y="660.2" class="st8" width="115.6" height="78.4"/>
<rect x="366.9" y="596.2" class="st5" width="115.6" height="64"/>
<rect x="384.4" y="674.5" class="st7" width="27.6" height="64"/>
<rect x="434.2" y="674.5" class="st11" width="27.6" height="29.6"/>
<rect x="574.2" y="660.2" class="st6" width="157.5" height="14.4"/>
<polygon class="st6" points="424.7,607.2 387.3,640.2 381.5,645.3 468,645.3 "/>
<polygon class="st12" points="424.7,616.4 391.9,645.3 457.5,645.3 "/>
<rect x="1200.5" y="548" class="st8" width="157.5" height="14.4"/>
<g>
	<rect x="1315.3" y="511" class="st11" width="27.6" height="29.6"/>
	<rect x="1265.4" y="511" class="st5" width="27.6" height="29.6"/>
	<rect x="1215.5" y="511" class="st10" width="27.6" height="29.6"/>
</g>
<rect x="1060" y="630.1" class="st5" width="27.6" height="29.6"/>
<rect x="1109.9" y="630.1" class="st11" width="27.6" height="29.6"/>
<rect x="1159.8" y="630.1" class="st7" width="27.6" height="29.6"/>
<rect x="1002.1" y="589.2" class="st10" width="27.6" height="29.6"/>
<rect x="952.3" y="589.2" class="st7" width="27.6" height="29.6"/>
<rect x="902.4" y="589.2" class="st11" width="27.6" height="29.6"/>
<rect x="1002.1" y="544.8" class="st8" width="27.6" height="29.6"/>
<rect x="952.3" y="544.8" class="st8" width="27.6" height="29.6"/>
<rect x="902.4" y="544.8" class="st10" width="27.6" height="29.6"/>
<rect x="837.6" y="645.1" class="st12" width="27.6" height="22.8"/>
<rect x="837.6" y="610" class="st7" width="27.6" height="22.8"/>
<rect x="795.7" y="645.1" class="st7" width="27.6" height="22.8"/>
<rect x="795.7" y="610" class="st10" width="27.6" height="22.8"/>
<rect x="753.8" y="645.1" class="st10" width="27.6" height="22.8"/>
<rect x="753.8" y="610" class="st11" width="27.6" height="22.8"/>
<rect x="574.2" y="589.6" class="st6" width="157.5" height="14.4"/>
<g>
	<rect x="689" y="532.2" class="st8" width="27.6" height="29.6"/>
	<rect x="639.1" y="532.2" class="st7" width="27.6" height="29.6"/>
	<rect x="589.2" y="532.2" class="st12" width="27.6" height="29.6"/>
</g>
<rect x="1002.1" y="499.7" class="st5" width="27.6" height="29.6"/>
<rect x="952.3" y="499.7" class="st11" width="27.6" height="29.6"/>
<rect x="902.4" y="499.7" class="st8" width="27.6" height="29.6"/>
<g>
	<path class="st13" d="M1033.5,715.9c-1,0.2-1.9-0.5-2.1-1.4c-0.2-1,0.5-1.9,1.4-2.1c1.2-0.2,2.9-0.8,4.6-2.3
		c1.7-1.6,3.3-4.3,4.3-8.7c0.2-1,1.1-1.6,2.1-1.4c1,0.2,1.6,1.1,1.4,2.1c-1.1,5.3-3.1,8.5-5.3,10.6
		C1037.6,714.8,1035.2,715.6,1033.5,715.9z"/>
	<path class="st13" d="M1029.4,697.4c-0.1-1,0.6-1.9,1.6-2c1-0.1,1.9,0.6,2,1.6c0.4,4.1,1.1,11.2,1.3,19c0.2,7.9,0,16.5-1.3,23.8
		c-0.2,1-1.1,1.6-2.1,1.4c-1-0.2-1.6-1.1-1.4-2.1c1.3-7,1.5-15.4,1.3-23.1C1030.5,708.5,1029.9,701.5,1029.4,697.4z"/>
	<path class="st14" d="M1038.8,685.1c6.5,0,11.8,4,11.8,8.9c0,3.6-2.9,6.8-6.9,8.2c-1.2,4-5.9,6.9-11.4,6.9c-4.7,0-8.8-2.1-10.7-5.2
		c-0.5,0.1-1.1,0.1-1.6,0.1c-6.5,0-11.8-4-11.8-8.9c0-4.1,3.7-7.6,8.6-8.6c1.4-3.7,5.9-6.4,11.3-6.4c4.7,0,8.7,2.1,10.6,5.1
		L1038.8,685.1z"/>
	<path class="st15" d="M1038.8,685.1c6.5,0,11.8,4,11.8,8.9c0,0.9-0.2,1.7-0.5,2.5c-0.6,0.3-1.3,0.6-2,0.9c-0.5,1.6-1.6,3.1-3.1,4.2
		c-0.5,0.2-0.9,0.4-1.4,0.6c0,0.1-0.1,0.3-0.2,0.4c-1.9,1-4.3,1.7-6.8,1.7c-4.7,0-8.8-2.1-10.7-5.2c-0.5,0.1-1.1,0.1-1.6,0.1
		c-6.5,0-11.8-4-11.8-8.9c0-0.9,0.2-1.7,0.5-2.5c1.1-0.6,2.4-1.1,3.7-1.3c1.4-3.7,5.9-6.4,11.3-6.4c4.7,0,8.7,2.1,10.6,5.1
		L1038.8,685.1z"/>
</g>
<g>
	<path class="st13" d="M849,720.6c0.9,0.5,1.3,1.6,0.8,2.5c-0.5,0.9-1.6,1.3-2.5,0.8c-1.8-0.9-4.6-2.8-7.6-6.6l0,0
		c-2-2.5-4-6-5.9-10.6c-0.4-1,0.1-2,1-2.4c1-0.4,2,0.1,2.4,1c1.7,4.2,3.6,7.3,5.4,9.7l0,0l0,0C845.3,718.3,847.6,719.9,849,720.6z"
		/>
	<path class="st13" d="M847.6,740.5c-0.6,0.9-1.7,1.1-2.6,0.6c-0.9-0.6-1.1-1.7-0.6-2.6c1.6-2.5,2.4-7.4,2.4-13.1
		c0-6.2-0.8-13.3-2.4-19.6c-0.3-1,0.3-2,1.3-2.3c1-0.3,2,0.3,2.3,1.3c1.7,6.6,2.6,14,2.6,20.5C850.6,731.8,849.6,737.4,847.6,740.5z
		"/>
	<path class="st14" d="M842.1,711.3L842.1,711.3L842.1,711.3c-0.1,0-0.2,0-0.3,0l0,0l0,0c-0.1,0-0.2,0-0.2,0l0,0l0,0
		c-0.1,0-0.2,0-0.2,0l0,0l0,0h0c-0.1,0-0.2,0-0.3,0l0,0l0,0c-0.1,0-0.2,0-0.3,0l0,0h0h0c-0.1,0-0.2,0-0.3,0l0,0h0
		c-0.1,0-0.2,0-0.3,0h0c-0.1,0-0.2,0-0.3,0h0h0h0c-0.1,0-0.2,0-0.3,0c-6.1,0-11-3.8-11-8.4c0-0.1,0-0.1,0-0.2l0,0c0-0.1,0-0.1,0-0.2
		l0,0c0-0.1,0-0.1,0-0.2l0,0c0-0.1,0-0.1,0-0.2l0,0c0-0.1,0-0.1,0-0.2l0,0v0l0,0c0-0.1,0-0.1,0-0.2l0,0c0-0.1,0-0.1,0-0.2l0,0
		c0-0.1,0-0.1,0-0.2l0,0c0-0.1,0-0.1,0.1-0.2l0,0c0-0.1,0-0.1,0.1-0.2l0,0l0,0l0,0c0-0.1,0-0.1,0.1-0.2l0,0c0-0.1,0-0.1,0.1-0.2l0,0
		c0-0.1,0-0.1,0.1-0.1l0,0c0-0.1,0.1-0.1,0.1-0.2l0,0c0-0.1,0-0.1,0.1-0.2l0,0l0,0l0,0c0-0.1,0.1-0.1,0.1-0.1l0,0
		c0-0.1,0.1-0.1,0.1-0.2l0,0c0,0,0.1-0.1,0.1-0.1l0,0c0-0.1,0.1-0.1,0.1-0.2l0,0c0,0,0.1-0.1,0.1-0.1l0,0l0,0c0-0.1,0.1-0.1,0.1-0.2
		l0,0c0-0.1,0.1-0.1,0.1-0.2l0,0c0,0,0.1-0.1,0.1-0.1l0,0c0,0,0.1-0.1,0.1-0.1l0,0c0,0,0.1-0.1,0.1-0.1l0,0l0,0l0,0
		c0,0,0.1-0.1,0.1-0.1l0,0c0,0,0.1-0.1,0.1-0.1l0,0c0,0,0.1-0.1,0.1-0.1l0,0c0,0,0.1-0.1,0.1-0.1l0,0c0,0,0.1-0.1,0.1-0.1l0,0
		c0,0,0.1-0.1,0.1-0.1l0,0c0.1,0,0.1-0.1,0.2-0.1l0,0c0,0,0.1-0.1,0.1-0.1l0.1,0c0,0,0.1-0.1,0.2-0.1l0.1,0c0,0,0.1-0.1,0.1-0.1l0,0
		l0,0c0.1,0,0.1-0.1,0.2-0.1l0.1,0c0.1,0,0.1-0.1,0.2-0.1l0.1,0c0,0,0.1-0.1,0.1-0.1l0,0c0.1,0,0.1-0.1,0.2-0.1l0.1,0
		c0.1,0,0.1-0.1,0.2-0.1l0,0l0,0c0,0,0-0.1,0-0.1l0,0c0-0.1,0-0.1-0.1-0.2l0,0c0-0.1,0-0.1-0.1-0.2l0,0c0-0.1,0-0.1-0.1-0.2l0,0
		c0-0.1,0-0.1-0.1-0.2l0,0c0-0.1,0-0.1-0.1-0.2l0,0c0-0.1,0-0.1,0-0.2l0,0l0,0c0-0.1,0-0.1,0-0.2l0,0c0-0.1,0-0.1,0-0.2v0l0,0
		c0-0.1,0-0.1,0-0.2v0l0,0c0-0.1,0-0.1,0-0.2v0c0-0.1,0-0.1,0-0.2l0,0v0v0c0-0.1,0-0.1,0-0.2c0-4.6,4.9-8.4,11-8.4
		c0.1,0,0.2,0,0.2,0l0.1,0c0.1,0,0.1,0,0.2,0l0,0c0.1,0,0.2,0,0.3,0l0,0c0.1,0,0.1,0,0.2,0l0.1,0c0.1,0,0.1,0,0.2,0l0.1,0
		c0.1,0,0.2,0,0.2,0l0.1,0l0.2,0l0.1,0c0.1,0,0.2,0,0.2,0l0,0l0,0c0.1,0,0.1,0,0.2,0l0.1,0l0.2,0l0.1,0c0.1,0,0.1,0,0.2,0l0.1,0
		l0.2,0l0.1,0c0.1,0,0.1,0,0.2,0.1l0,0h0l0,0c0.1,0,0.1,0,0.2,0.1l0.1,0l0.2,0l0.1,0c0.1,0,0.1,0,0.2,0.1l0.1,0l0.1,0l0.1,0l0.1,0.1
		l0.1,0c0.1,0,0.1,0,0.2,0.1l0.1,0l0.1,0.1l0.1,0c0.1,0,0.1,0,0.2,0.1l0.1,0l0.1,0.1l0.1,0l0.1,0l0.1,0c0.1,0,0.1,0.1,0.2,0.1l0.1,0
		l0.1,0.1l0.1,0.1l0.1,0.1c0,0,0.1,0.1,0.1,0.1l0.1,0.1l0.1,0.1l0.1,0l0.1,0.1l0,0c0,0,0.1,0.1,0.1,0.1l0.1,0.1l0.1,0l0.1,0.1l0,0
		c0.1,0.1,0.2,0.1,0.2,0.2l0,0l0.1,0.1l0.1,0l0.1,0.1l0,0c0.1,0,0.1,0.1,0.2,0.1l0.1,0.1l0.1,0.1l0,0c0,0,0.1,0.1,0.1,0.1
		c0,0,0.1,0.1,0.1,0.1l0,0l0.1,0.1l0.1,0.1l0.1,0.1l0,0c0.1,0.1,0.2,0.2,0.3,0.3l0,0c0.1,0.1,0.2,0.2,0.3,0.3l0,0l0.1,0.1l0,0
		c0.1,0.1,0.2,0.2,0.2,0.3l0,0c0,0,0,0.1,0.1,0.1l0,0l0.1,0c6.1,0,11,3.8,11,8.4c0,0.1,0,0.1,0,0.2l0,0.1c0,0,0,0.1,0,0.1l0,0.1
		c0,0.1,0,0.1,0,0.2l0,0c0,0.1,0,0.1,0,0.2l0,0c0,0.1,0,0.1,0,0.2l0,0c0,0.1,0,0.1,0,0.2l0,0.1c0,0,0,0.1,0,0.1l0,0.1
		c0,0.1,0,0.1,0,0.2l0,0c0,0.1,0,0.1-0.1,0.2l0,0c0,0,0,0.1,0,0.1l0,0.1c0,0.1,0,0.1-0.1,0.2l0,0l0,0c0,0.1,0,0.1-0.1,0.2l0,0.1
		c0,0,0,0.1-0.1,0.1l0,0.1c0,0.1-0.1,0.1-0.1,0.2l0,0l0,0c0,0.1-0.1,0.1-0.1,0.2l0,0.1l-0.1,0.1l0,0.1c0,0.1-0.1,0.1-0.1,0.2l0,0
		c0,0,0,0.1-0.1,0.1l0,0.1l-0.1,0.1l0,0.1c0,0.1-0.1,0.1-0.1,0.2l0,0l-0.1,0.1l0,0.1c0,0-0.1,0.1-0.1,0.1l0,0c0,0.1-0.1,0.1-0.1,0.1
		l0,0l-0.1,0.1l0,0.1c0,0-0.1,0.1-0.1,0.1l-0.1,0.1l-0.1,0.1l-0.1,0.1l-0.1,0.1l-0.1,0.1l-0.1,0.1l-0.1,0.1l-0.1,0.1l-0.1,0.1
		l-0.1,0.1l-0.1,0.1c0,0-0.1,0.1-0.1,0.1l-0.1,0l-0.1,0.1l-0.1,0.1l-0.1,0.1l-0.1,0c-0.1,0-0.1,0.1-0.2,0.1l-0.1,0.1l-0.1,0.1
		l-0.1,0.1l-0.1,0.1l-0.1,0.1c0,0-0.1,0.1-0.2,0.1l0,0l-0.1,0.1l-0.1,0.1l-0.1,0.1l-0.1,0.1l-0.1,0.1l-0.1,0.1l-0.1,0.1l-0.1,0
		l-0.1,0.1l-0.1,0c-0.1,0-0.1,0.1-0.2,0.1l-0.1,0l-0.1,0.1l-0.1,0l-0.1,0c0,0-0.1,0-0.1,0.1l-0.1,0.1l-0.1,0l-0.1,0l-0.1,0l-0.1,0
		c-1.1,3.7-5.5,6.5-10.7,6.5C845.7,712.5,843.7,712.1,842.1,711.3z"/>
	<path class="st15" d="M839.8,685.8c1.3-0.4,2.7-0.6,4.1-0.6c0.1,0,0.2,0,0.2,0l0.1,0c0.1,0,0.1,0,0.2,0l0,0c0.1,0,0.2,0,0.3,0l0,0
		c0.1,0,0.1,0,0.2,0l0.1,0c0.1,0,0.1,0,0.2,0l0.1,0c0.1,0,0.2,0,0.2,0l0.1,0l0.2,0l0.1,0c0.1,0,0.2,0,0.2,0l0,0l0,0
		c0.1,0,0.1,0,0.2,0l0.1,0l0.2,0l0.1,0c0.1,0,0.1,0,0.2,0l0.1,0l0.2,0l0.1,0c0.1,0,0.1,0,0.2,0.1l0,0h0l0,0c0.1,0,0.1,0,0.2,0.1
		l0.1,0l0.2,0l0.1,0c0.1,0,0.1,0,0.2,0.1l0.1,0l0.1,0l0.1,0l0.1,0.1l0.1,0c0.1,0,0.1,0,0.2,0.1l0.1,0l0.1,0.1l0.1,0
		c0.1,0,0.1,0,0.2,0.1l0.1,0l0.1,0.1l0.1,0l0.1,0l0.1,0c0.1,0,0.1,0.1,0.2,0.1l0.1,0l0.1,0.1l0.1,0.1l0.1,0.1c0,0,0.1,0.1,0.1,0.1
		l0.1,0.1l0.1,0.1l0.1,0l0.1,0.1l0,0c0,0,0.1,0.1,0.1,0.1l0.1,0.1l0.1,0l0.1,0.1l0,0c0.1,0.1,0.2,0.1,0.2,0.2l0,0l0.1,0.1l0.1,0
		l0.1,0.1l0,0c0.1,0,0.1,0.1,0.2,0.1l0.1,0.1l0.1,0.1l0,0c0,0,0.1,0.1,0.1,0.1c0,0,0.1,0.1,0.1,0.1l0,0l0.1,0.1l0.1,0.1l0.1,0.1l0,0
		c0.1,0.1,0.2,0.2,0.3,0.3l0,0c0.1,0.1,0.2,0.2,0.3,0.3l0,0l0.1,0.1l0,0c0.1,0.1,0.2,0.2,0.2,0.3l0,0c0,0,0,0.1,0.1,0.1l0,0l0.1,0
		c6.1,0,11,3.8,11,8.4c0,0.1,0,0.1,0,0.2l0,0.1c0,0,0,0.1,0,0.1l0,0.1c0,0.1,0,0.1,0,0.2l0,0c0,0.1,0,0.1,0,0.2l0,0
		c0,0.1,0,0.1,0,0.2l0,0c0,0.1,0,0.1,0,0.2l0,0.1c0,0,0,0.1,0,0.1l0,0.1c0,0.1,0,0.1,0,0.2l0,0c0,0.1,0,0.1-0.1,0.2l0,0
		c0,0,0,0.1,0,0.1l0,0.1c0,0.1,0,0.1-0.1,0.2l0,0l0,0c0,0.1,0,0.1-0.1,0.2l0,0.1c0,0,0,0.1-0.1,0.1l0,0.1c0,0.1-0.1,0.1-0.1,0.2l0,0
		l0,0c0,0.1-0.1,0.1-0.1,0.2l0,0.1l-0.1,0.1l0,0.1c0,0.1-0.1,0.1-0.1,0.2l0,0c0,0,0,0.1-0.1,0.1l0,0.1l-0.1,0.1l0,0.1
		c0,0.1-0.1,0.1-0.1,0.2l0,0l-0.1,0.1l0,0.1c0,0-0.1,0.1-0.1,0.1l0,0c0,0.1-0.1,0.1-0.1,0.1l0,0l-0.1,0.1l0,0.1c0,0-0.1,0.1-0.1,0.1
		l-0.1,0.1l-0.1,0.1l-0.1,0.1l-0.1,0.1l-0.1,0.1l-0.1,0.1l-0.1,0.1l-0.1,0.1l-0.1,0.1l-0.1,0.1l-0.1,0.1c0,0-0.1,0.1-0.1,0.1l-0.1,0
		l-0.1,0.1l-0.1,0.1l-0.1,0.1l-0.1,0c-0.1,0-0.1,0.1-0.2,0.1l-0.1,0.1l-0.1,0.1l-0.1,0.1l-0.1,0.1l-0.1,0.1c0,0-0.1,0.1-0.2,0.1l0,0
		l-0.1,0.1l-0.1,0.1l-0.1,0.1l-0.1,0.1l-0.1,0.1l-0.1,0.1l-0.1,0.1l-0.1,0l-0.1,0.1l-0.1,0c-0.1,0-0.1,0.1-0.2,0.1l-0.1,0l-0.1,0.1
		l-0.1,0l-0.1,0c0,0-0.1,0-0.1,0.1l-0.1,0.1l-0.1,0l-0.1,0l-0.1,0l-0.1,0c-0.3,0.9-0.8,1.8-1.4,2.6c-1.3,0.4-2.7,0.6-4.1,0.6
		c-2.1,0-4-0.4-5.6-1.2l0,0l0,0c-0.1,0-0.2,0-0.2,0l0,0l0,0c-0.1,0-0.2,0-0.2,0l0,0l0,0c-0.1,0-0.2,0-0.2,0l0,0l0,0h0
		c-0.1,0-0.2,0-0.3,0l0,0l0,0c-0.1,0-0.2,0-0.3,0l0,0l0,0h0c-0.1,0-0.2,0-0.3,0h0h0c-0.1,0-0.2,0-0.3,0h0c-0.1,0-0.2,0-0.3,0h0h0h0
		c-0.1,0-0.2,0-0.3,0c-6.1,0-11-3.8-11-8.4c0-0.1,0-0.1,0-0.2l0,0c0-0.1,0-0.1,0-0.2l0,0c0-0.1,0-0.1,0-0.2l0,0c0-0.1,0-0.1,0-0.2
		l0,0c0-0.1,0-0.1,0-0.2l0,0l0,0l0,0c0-0.1,0-0.1,0-0.2l0,0c0-0.1,0-0.1,0-0.2l0,0c0-0.1,0-0.1,0-0.2l0,0c0-0.1,0-0.1,0.1-0.2l0,0
		c0-0.1,0-0.1,0.1-0.2l0,0v0l0,0c0-0.1,0-0.1,0.1-0.2l0,0c0-0.1,0-0.1,0.1-0.2l0,0c0-0.1,0-0.1,0.1-0.1l0,0c0-0.1,0-0.1,0.1-0.2l0,0
		c0-0.1,0.1-0.1,0.1-0.2l0,0l0,0l0,0c0-0.1,0.1-0.1,0.1-0.2l0,0c0-0.1,0.1-0.1,0.1-0.2l0,0c0,0,0.1-0.1,0.1-0.1l0,0
		c0-0.1,0.1-0.1,0.1-0.2l0,0c0,0,0.1-0.1,0.1-0.1l0,0l0,0c0-0.1,0.1-0.1,0.1-0.2l0,0c0-0.1,0.1-0.1,0.1-0.2l0,0c0,0,0.1-0.1,0.1-0.1
		l0,0c0,0,0.1-0.1,0.1-0.1l0,0c0,0,0.1-0.1,0.1-0.1l0,0l0,0l0,0c0,0,0.1-0.1,0.1-0.1l0,0c0,0,0.1-0.1,0.1-0.1l0,0
		c0,0,0.1-0.1,0.1-0.1l0,0c0,0,0.1-0.1,0.1-0.1l0,0c0,0,0.1-0.1,0.1-0.1l0,0c0,0,0.1-0.1,0.1-0.1l0,0c0.1,0,0.1-0.1,0.2-0.1l0,0
		c0,0,0.1-0.1,0.1-0.1l0.1,0c0.1,0,0.1-0.1,0.2-0.1l0.1,0c0,0,0.1-0.1,0.1-0.1l0,0l0,0c0.1,0,0.1-0.1,0.2-0.1l0.1,0
		c0.1,0,0.1-0.1,0.2-0.1l0.1,0c0,0,0.1-0.1,0.1-0.1l0,0c0.1,0,0.1-0.1,0.2-0.1l0.1,0c0.1,0,0.1-0.1,0.2-0.1l0,0l0,0c0,0,0-0.1,0-0.1
		l0,0c0-0.1,0-0.1-0.1-0.2l0,0c0-0.1,0-0.1-0.1-0.2l0,0c0-0.1,0-0.1-0.1-0.2l0,0c0-0.1,0-0.1-0.1-0.2l0,0c0-0.1,0-0.1,0-0.2l0,0
		c0-0.1,0-0.1,0-0.2l0,0l0,0c0-0.1,0-0.1,0-0.2l0,0c0-0.1,0-0.1,0-0.2v0l0,0c0-0.1,0-0.1,0-0.2v0l0,0c0-0.1,0-0.1,0-0.2v0
		c0-0.1,0-0.1,0-0.2v0v0v0c0-0.1,0-0.1,0-0.2C838.1,688.7,838.7,687.1,839.8,685.8z"/>
</g>
<g>
	<path class="st13" d="M660.5,726.8c-0.9,0.2-1.8-0.5-2-1.4c-0.2-0.9,0.5-1.8,1.4-2c2.4-0.4,5-1.9,6.9-4.5c1.6-2.2,2.6-5.3,2.6-9.2
		c0-0.9,0.8-1.7,1.7-1.7s1.7,0.8,1.7,1.7c0,4.7-1.3,8.4-3.3,11.1C667.2,724.3,663.7,726.3,660.5,726.8z"/>
	<path class="st13" d="M658.2,719.2c0.9,0.2,1.5,1.1,1.3,2c-0.2,0.9-1.1,1.5-2,1.3c-2.8-0.6-7.7-2.1-11.5-5.4
		c-2.6-2.3-4.7-5.4-5.2-9.6c-0.1-0.9,0.5-1.8,1.5-1.9c0.9-0.1,1.8,0.5,1.9,1.5c0.4,3.3,2.1,5.7,4.1,7.5
		C651.5,717.4,655.8,718.7,658.2,719.2z"/>
	<path class="st13" d="M662.9,739.9c-0.1,0.9-1,1.6-1.9,1.5c-0.9-0.1-1.6-1-1.5-1.9c0.5-3.5,0.2-6.7-0.8-10.8c-1-4.3-2.8-9.5-5.6-17
		c-0.3-0.9,0.1-1.9,1-2.2c0.9-0.3,1.9,0.1,2.2,1c2.7,7.6,4.6,13,5.7,17.4C663.1,732.4,663.4,736,662.9,739.9z"/>
	<path class="st14" d="M641.3,711.1c-1.1,0.4-2.4,0.6-3.7,0.6c-4.4,0-7.9-2.4-7.9-5.3c0-2.3,2.2-4.2,5.2-5c-1.9-1-3.2-2.5-3.2-4.2
		c0-2.9,3.5-5.3,7.9-5.3c0.2,0,0.3,0,0.5,0c-0.1-0.3-0.1-0.6-0.1-0.9c0-2.9,3.5-5.3,7.9-5.3c0.9,0,1.7,0.1,2.5,0.3
		c0.4-2.6,3.8-4.7,7.8-4.7c4.4,0,7.9,2.4,7.9,5.3c0,0.1,0,0.2,0,0.2c0.4,0,0.8-0.1,1.3-0.1c4.4,0,7.9,2.4,7.9,5.3
		c0,1.1-0.5,2-1.3,2.9c1,0.9,1.7,2,1.7,3.2c0.5-0.1,1.1-0.1,1.7-0.1c4.4,0,7.9,2.4,7.9,5.3c0,2.9-3.5,5.3-7.9,5.3
		c-0.2,0-0.4,0-0.6,0c-0.8,2.3-3.9,4.1-7.7,4.1c-0.4,0-0.9,0-1.3-0.1c-0.3,2.7-3.7,4.8-7.9,4.8c-3.4,0-6.2-1.4-7.4-3.4
		c-1.1,0.4-2.4,0.7-3.8,0.7C645.3,714.8,642.3,713.2,641.3,711.1z"/>
	<path class="st15" d="M653.4,706.7c-1.1,0.4-2.4,0.6-3.7,0.6c-4.4,0-7.9-2.4-7.9-5.3c0-2.3,2.2-4.2,5.2-5c-1.9-1-3.2-2.5-3.2-4.2
		c0-2.9,3.5-5.3,7.9-5.3c0.2,0,0.3,0,0.5,0c-0.1-0.3-0.1-0.6-0.1-0.9c0-2.8,3.2-5.1,7.3-5.2c3.8,0.4,6.8,2.6,6.8,5.2
		c0,0.1,0,0.2,0,0.2c0.4,0,0.8-0.1,1.3-0.1c4.4,0,7.9,2.4,7.9,5.3c0,1.1-0.5,2-1.3,2.9c1,0.9,1.7,2,1.7,3.2c0.5-0.1,1.1-0.1,1.7-0.1
		c4.4,0,7.9,2.4,7.9,5.3c0,2.2-2.1,4.2-5.1,4.9c-0.1,0-0.2,0-0.3,0c0,0,0,0.1,0,0.1c-0.8,0.2-1.6,0.3-2.5,0.3c-0.2,0-0.4,0-0.6,0
		c-0.8,2.3-3.9,4.1-7.7,4.1h0c-2-0.5-3.7-1.6-4.4-3c-1.1,0.4-2.4,0.7-3.8,0.7C657.4,710.4,654.4,708.8,653.4,706.7z"/>
</g>
<g>
	<path class="st13" d="M468.5,730.3c0.7-0.1,1.2-0.7,1.1-1.4c-0.1-0.7-0.7-1.2-1.4-1.1c0,0-0.1,0-0.2,0c-0.6,0-1.4-0.3-2-0.8
		c-0.7-0.6-1.2-1.4-1.3-2.6c0-0.2,0-0.4,0-0.6c0-0.7-0.6-1.2-1.3-1.2c-0.7,0-1.2,0.6-1.2,1.3c0,0.3,0,0.6,0.1,0.9
		c0.2,1.8,1.1,3.2,2.2,4.2c1.1,1,2.5,1.4,3.7,1.4C468.2,730.3,468.3,730.3,468.5,730.3z"/>
	<g>
		<path class="st13" d="M470.6,740c-0.2,0.9-1.1,1.5-2,1.3c-0.9-0.2-1.5-1.1-1.3-2c0.5-2.7,1.1-9.1,1.2-15.6
			c0.1-4.9-0.2-9.8-0.8-13.3c-0.2-0.9,0.4-1.8,1.3-2c0.9-0.2,1.8,0.4,2,1.3c0.7,3.7,0.9,8.9,0.9,14
			C471.8,730.5,471.2,737.1,470.6,740z"/>
		<path class="st14" d="M477.5,696.2c2.5,1.6,4.1,4.2,4.1,7.1c0,0.6-0.1,1.2-0.2,1.7c3.1,1.5,5.2,4.4,5.2,7.7c0,4.8-4.4,8.7-9.9,8.8
			c-1.6,3-5.1,5-9.1,5c-2.6,0-4.9-0.8-6.7-2.2c-0.9,0.2-1.8,0.3-2.8,0.3c-5.5,0-10-3.9-10-8.8c0-3.2,2-6,4.9-7.5
			c-0.3-0.8-0.4-1.6-0.4-2.5c0-3.5,2.4-6.6,5.8-8c-0.5-1-0.8-2.2-0.8-3.3c0-4.9,4.5-8.8,10-8.8c5.5,0,10,3.9,10,8.8
			C477.7,695,477.6,695.6,477.5,696.2z"/>
		<path class="st15" d="M477.5,696.2c2.5,1.6,4.1,4.2,4.1,7.1c0,0.6-0.1,1.2-0.2,1.7c3.1,1.5,5.2,4.4,5.2,7.7c0,0.9-0.2,1.7-0.4,2.6
			c-0.9,0.2-1.8,0.4-2.7,0.4c-1.6,3-5.1,5-9.1,5c-2.6,0-4.9-0.8-6.7-2.2c-0.9,0.2-1.8,0.3-2.8,0.3c-5.5,0-10-3.9-10-8.8
			c0-3.2,2-6,4.9-7.5c-0.3-0.8-0.4-1.6-0.4-2.5c0-3.5,2.4-6.6,5.8-8c-0.5-1-0.8-2.2-0.8-3.3c0-0.9,0.2-1.7,0.4-2.6
			c0.9-0.2,1.9-0.4,2.9-0.4c5.5,0,10,3.9,10,8.8C477.7,695,477.6,695.6,477.5,696.2z"/>
	</g>
</g>
<g>
	<path class="st13" d="M1405.7,716.8c1.1,0.5,1.5,1.9,1,2.9c-0.5,1.1-1.9,1.5-2.9,1c-2.1-1-5.4-3.3-9-7.8l0,0c-2.3-3-4.8-7.1-7-12.5
		c-0.5-1.1,0.1-2.4,1.2-2.9c1.1-0.5,2.4,0.1,2.9,1.2c2,5,4.2,8.7,6.3,11.4l0,0l0,0C1401.3,714.1,1404.1,715.9,1405.7,716.8z"/>
	<path class="st13" d="M1404,740.3c-0.7,1-2,1.3-3,0.7c-1-0.7-1.3-2-0.7-3c1.9-3,2.8-8.7,2.9-15.5c0-7.3-1-15.7-2.9-23.1
		c-0.3-1.2,0.4-2.4,1.6-2.7c1.2-0.3,2.4,0.4,2.7,1.6c2,7.8,3.1,16.6,3,24.2C1407.6,730.1,1406.4,736.6,1404,740.3z"/>
	<path class="st14" d="M1397.5,705.9L1397.5,705.9L1397.5,705.9c-0.1,0-0.2,0-0.3,0.1l0,0l0,0c-0.1,0-0.2,0-0.3,0l0,0l0,0
		c-0.1,0-0.2,0-0.3,0l0,0l0,0h0c-0.1,0-0.2,0-0.3,0l0,0l0,0c-0.1,0-0.2,0-0.3,0l0,0l0,0h0c-0.1,0-0.2,0-0.3,0h0l0,0
		c-0.1,0-0.2,0-0.3,0l0,0c-0.1,0-0.2,0-0.3,0h0h0h0c-0.1,0-0.2,0-0.3,0c-7.2,0-13-4.4-13-9.9c0-0.1,0-0.1,0-0.2l0-0.1
		c0-0.1,0-0.1,0-0.2l0,0c0-0.1,0-0.1,0-0.2l0,0c0-0.1,0-0.1,0-0.2l0,0c0-0.1,0-0.1,0-0.2l0,0v0l0,0c0-0.1,0-0.1,0-0.2l0-0.1
		c0-0.1,0-0.1,0-0.2l0,0c0-0.1,0-0.1,0.1-0.2l0,0c0-0.1,0-0.1,0.1-0.2l0,0c0-0.1,0-0.1,0.1-0.2l0,0v0l0,0c0-0.1,0-0.1,0.1-0.2l0,0
		c0-0.1,0.1-0.1,0.1-0.2l0,0c0-0.1,0-0.1,0.1-0.2l0,0c0-0.1,0.1-0.1,0.1-0.2l0,0c0-0.1,0.1-0.1,0.1-0.2l0,0l0,0l0,0
		c0-0.1,0.1-0.1,0.1-0.2l0-0.1c0-0.1,0.1-0.1,0.1-0.2l0,0c0-0.1,0.1-0.1,0.1-0.2l0,0c0-0.1,0.1-0.1,0.1-0.2l0-0.1
		c0-0.1,0.1-0.1,0.1-0.2l0,0l0,0c0-0.1,0.1-0.1,0.1-0.2l0,0c0-0.1,0.1-0.1,0.1-0.2l0,0c0-0.1,0.1-0.1,0.1-0.2l0,0
		c0-0.1,0.1-0.1,0.1-0.2l0-0.1c0,0,0.1-0.1,0.1-0.1l0,0l0,0l0,0c0,0,0.1-0.1,0.1-0.1l0-0.1c0.1-0.1,0.1-0.1,0.2-0.2l0,0
		c0.1,0,0.1-0.1,0.2-0.1l0,0c0.1-0.1,0.1-0.1,0.2-0.2l0,0c0.1,0,0.1-0.1,0.2-0.1l0,0c0.1,0,0.1-0.1,0.2-0.1l0.1,0
		c0.1,0,0.1-0.1,0.2-0.1l0,0c0.1,0,0.1-0.1,0.2-0.1l0.1,0c0.1,0,0.1-0.1,0.2-0.1l0.1,0c0.1,0,0.1-0.1,0.2-0.1l0,0l0,0
		c0.1,0,0.1-0.1,0.2-0.1l0.1,0c0.1,0,0.1-0.1,0.2-0.1l0.1,0c0.1,0,0.1-0.1,0.2-0.1l0.1,0c0.1,0,0.1-0.1,0.2-0.1l0.1,0
		c0.1,0,0.1-0.1,0.2-0.1l0,0l0,0c0,0,0-0.1-0.1-0.1l0,0c0-0.1-0.1-0.1-0.1-0.2l0,0c0-0.1,0-0.1-0.1-0.2l0,0c0-0.1,0-0.1-0.1-0.2l0,0
		c0-0.1,0-0.1-0.1-0.2l0,0c0-0.1,0-0.2-0.1-0.2l0,0c0-0.1,0-0.2-0.1-0.2l0,0l0,0c0-0.1,0-0.2,0-0.2l0,0c0-0.1,0-0.2,0-0.2v0l0,0
		c0-0.1,0-0.2,0-0.2v0l0,0c0-0.1,0-0.2,0-0.2v0c0-0.1,0-0.2,0-0.2v0v0v0c0-0.1,0-0.2,0-0.3c0-5.5,5.8-9.9,13-9.9c0.1,0,0.2,0,0.3,0
		l0.1,0c0.1,0,0.2,0,0.3,0l0,0c0.1,0,0.2,0,0.3,0l0,0c0.1,0,0.2,0,0.3,0l0.1,0c0.1,0,0.2,0,0.2,0l0.1,0c0.1,0,0.2,0,0.3,0l0.1,0
		l0.2,0l0.1,0c0.1,0,0.2,0,0.3,0l0,0l0,0c0.1,0,0.2,0,0.2,0l0.1,0l0.2,0l0.1,0c0.1,0,0.2,0,0.3,0.1l0.1,0l0.2,0l0.1,0
		c0.1,0,0.2,0,0.3,0.1l0,0l0,0l0,0c0.1,0,0.2,0,0.3,0.1l0.1,0l0.2,0.1l0.1,0c0.1,0,0.2,0.1,0.2,0.1l0.1,0l0.2,0.1l0.1,0l0.2,0.1
		l0.1,0c0.1,0,0.1,0.1,0.2,0.1l0.1,0l0.2,0.1l0.1,0c0.1,0,0.1,0.1,0.2,0.1l0.1,0.1l0.1,0.1l0.1,0.1l0.1,0.1l0.1,0.1
		c0.1,0,0.1,0.1,0.2,0.1l0.1,0.1l0.1,0.1l0.1,0.1l0.1,0.1c0.1,0,0.1,0.1,0.2,0.1l0.1,0.1l0.1,0.1l0.1,0l0.1,0.1l0,0
		c0.1,0,0.1,0.1,0.2,0.1l0.1,0.1l0.1,0.1l0.1,0.1l0,0c0.1,0.1,0.2,0.1,0.3,0.2l0,0l0.1,0.1l0.1,0.1l0.1,0.1l0.1,0
		c0.1,0.1,0.1,0.1,0.2,0.2l0.1,0.1l0.1,0.1l0.1,0c0,0,0.1,0.1,0.1,0.1c0,0,0.1,0.1,0.1,0.1l0,0l0.1,0.1l0.1,0.1l0.1,0.1l0,0
		c0.1,0.1,0.2,0.3,0.4,0.4l0,0c0.1,0.1,0.2,0.3,0.3,0.4l0,0l0.1,0.1l0,0c0.1,0.1,0.2,0.3,0.3,0.4l0,0c0,0,0.1,0.1,0.1,0.1l0,0l0.1,0
		c7.2,0,13,4.4,13,9.9c0,0.1,0,0.2,0,0.2l0,0.1c0,0.1,0,0.1,0,0.2l0,0.1c0,0.1,0,0.2,0,0.2l0,0c0,0.1,0,0.1,0,0.2l0,0.1
		c0,0.1,0,0.1,0,0.2l0,0.1c0,0.1,0,0.1,0,0.2l0,0.1c0,0.1,0,0.1,0,0.2l0,0.1c0,0.1,0,0.1,0,0.2l0,0c0,0.1,0,0.1-0.1,0.2l0,0.1
		c0,0.1,0,0.1-0.1,0.2l0,0.1c0,0.1,0,0.1-0.1,0.2l0,0l0,0c0,0.1-0.1,0.1-0.1,0.2l0,0.1c0,0,0,0.1-0.1,0.1l0,0.1
		c0,0.1-0.1,0.1-0.1,0.2l0,0l0,0c0,0.1-0.1,0.1-0.1,0.2l0,0.1l-0.1,0.1l0,0.1c0,0.1-0.1,0.1-0.1,0.2l0,0.1c0,0-0.1,0.1-0.1,0.1
		l0,0.1l-0.1,0.1l0,0.1c0,0.1-0.1,0.1-0.1,0.2l0,0.1l-0.1,0.1l-0.1,0.1c0,0-0.1,0.1-0.1,0.1l0,0c0,0.1-0.1,0.1-0.1,0.2l0,0.1
		l-0.1,0.1l-0.1,0.1c0,0-0.1,0.1-0.1,0.1l-0.1,0.1l-0.1,0.1l-0.1,0.1l-0.1,0.1l-0.1,0.1l-0.1,0.1l-0.1,0.1l-0.1,0.1l-0.1,0.1
		l-0.1,0.1l-0.1,0.1c-0.1,0-0.1,0.1-0.2,0.1l-0.1,0.1l-0.1,0.1l-0.1,0.1l-0.1,0.1l-0.1,0.1c-0.1,0-0.1,0.1-0.2,0.1l-0.1,0.1
		l-0.1,0.1l-0.1,0.1l-0.1,0.1l-0.1,0.1c-0.1,0-0.1,0.1-0.2,0.1l0,0l-0.1,0.1l-0.1,0.1l-0.1,0.1l-0.1,0.1l-0.2,0.1l-0.1,0.1l-0.1,0.1
		l-0.1,0l-0.1,0.1l-0.1,0.1c-0.1,0-0.2,0.1-0.2,0.1l-0.1,0l-0.1,0.1l-0.1,0l-0.1,0c-0.1,0-0.1,0-0.2,0.1l-0.2,0.1l-0.1,0l-0.1,0
		l-0.1,0l-0.1,0c-1.3,4.4-6.5,7.7-12.7,7.7C1401.8,707.3,1399.5,706.8,1397.5,705.9z"/>
	<path class="st15" d="M1394.8,675.7c1.5-0.5,3.1-0.7,4.9-0.7c0.1,0,0.2,0,0.3,0l0.1,0c0.1,0,0.2,0,0.3,0l0,0c0.1,0,0.2,0,0.3,0l0,0
		c0.1,0,0.2,0,0.3,0l0.1,0c0.1,0,0.2,0,0.2,0l0.1,0c0.1,0,0.2,0,0.3,0l0.1,0l0.2,0l0.1,0c0.1,0,0.2,0,0.3,0l0,0l0,0
		c0.1,0,0.2,0,0.2,0l0.1,0l0.2,0l0.1,0c0.1,0,0.2,0,0.3,0.1l0.1,0l0.2,0l0.1,0c0.1,0,0.2,0,0.3,0.1l0,0l0,0l0,0c0.1,0,0.2,0,0.3,0.1
		l0.1,0l0.2,0.1l0.1,0c0.1,0,0.2,0.1,0.2,0.1l0.1,0l0.2,0.1l0.1,0l0.2,0.1l0.1,0c0.1,0,0.1,0.1,0.2,0.1l0.1,0l0.2,0.1l0.1,0
		c0.1,0,0.1,0.1,0.2,0.1l0.1,0.1l0.1,0.1l0.1,0.1l0.1,0.1l0.1,0.1c0.1,0,0.1,0.1,0.2,0.1l0.1,0.1l0.1,0.1l0.1,0.1l0.1,0.1
		c0.1,0,0.1,0.1,0.2,0.1l0.1,0.1l0.1,0.1l0.1,0l0.1,0.1l0,0c0.1,0,0.1,0.1,0.2,0.1l0.1,0.1l0.1,0.1l0.1,0.1l0,0
		c0.1,0.1,0.2,0.1,0.3,0.2l0,0l0.1,0.1l0.1,0.1l0.1,0.1l0.1,0c0.1,0.1,0.1,0.1,0.2,0.2l0.1,0.1l0.1,0.1l0.1,0c0,0,0.1,0.1,0.1,0.1
		c0,0,0.1,0.1,0.1,0.1l0,0l0.1,0.1l0.1,0.1l0.1,0.1l0,0c0.1,0.1,0.2,0.3,0.4,0.4l0,0c0.1,0.1,0.2,0.3,0.3,0.4l0,0l0.1,0.1l0,0
		c0.1,0.1,0.2,0.3,0.3,0.4l0,0c0,0,0.1,0.1,0.1,0.1l0,0l0.1,0c7.2,0,13,4.4,13,9.9c0,0.1,0,0.2,0,0.2l0,0.1c0,0.1,0,0.1,0,0.2l0,0.1
		c0,0.1,0,0.2,0,0.2l0,0c0,0.1,0,0.1,0,0.2l0,0.1c0,0.1,0,0.1,0,0.2l0,0.1c0,0.1,0,0.1,0,0.2l0,0.1c0,0.1,0,0.1,0,0.2l0,0.1
		c0,0.1,0,0.1,0,0.2l0,0c0,0.1,0,0.1-0.1,0.2l0,0.1c0,0.1,0,0.1-0.1,0.2l0,0.1c0,0.1,0,0.1-0.1,0.2l0,0l0,0c0,0.1-0.1,0.1-0.1,0.2
		l0,0.1c0,0,0,0.1-0.1,0.1l0,0.1c0,0.1-0.1,0.1-0.1,0.2l0,0l0,0c0,0.1-0.1,0.1-0.1,0.2l0,0.1l-0.1,0.1l0,0.1c0,0.1-0.1,0.1-0.1,0.2
		l0,0.1c0,0-0.1,0.1-0.1,0.1l0,0.1l-0.1,0.1l0,0.1c0,0.1-0.1,0.1-0.1,0.2l0,0.1l-0.1,0.1l-0.1,0.1c0,0-0.1,0.1-0.1,0.1l0,0
		c0,0.1-0.1,0.1-0.1,0.2l0,0.1l-0.1,0.1l-0.1,0.1c0,0-0.1,0.1-0.1,0.1l-0.1,0.1l-0.1,0.1l-0.1,0.1l-0.1,0.1l-0.1,0.1l-0.1,0.1
		l-0.1,0.1l-0.1,0.1l-0.1,0.1l-0.1,0.1l-0.1,0.1c-0.1,0-0.1,0.1-0.2,0.1l-0.1,0.1l-0.1,0.1l-0.1,0.1l-0.1,0.1l-0.1,0.1
		c-0.1,0-0.1,0.1-0.2,0.1l-0.1,0.1l-0.1,0.1l-0.1,0.1l-0.1,0.1l-0.1,0.1c-0.1,0-0.1,0.1-0.2,0.1l0,0l-0.1,0.1l-0.1,0.1l-0.1,0.1
		l-0.1,0.1l-0.2,0.1l-0.1,0.1l-0.1,0.1l-0.1,0l-0.1,0.1l-0.1,0.1c-0.1,0-0.2,0.1-0.2,0.1l-0.1,0l-0.1,0.1l-0.1,0l-0.1,0
		c-0.1,0-0.1,0-0.2,0.1l-0.2,0.1l-0.1,0l-0.1,0l-0.1,0l-0.1,0c-0.3,1.1-0.9,2.1-1.7,3.1c-1.5,0.5-3.1,0.7-4.9,0.7
		c-2.4,0-4.7-0.5-6.7-1.4l0,0l0,0c-0.1,0-0.2,0-0.3,0l0,0l0,0c-0.1,0-0.2,0-0.3,0l0,0l0,0c-0.1,0-0.2,0-0.3,0l0,0l0,0h0
		c-0.1,0-0.2,0-0.3,0l0,0l0,0c-0.1,0-0.2,0-0.3,0l0,0l0,0h0c-0.1,0-0.2,0-0.3,0h0l0,0c-0.1,0-0.2,0-0.3,0l0,0c-0.1,0-0.2,0-0.3,0h0
		h0h0c-0.1,0-0.2,0-0.3,0c-7.2,0-13-4.4-13-9.9c0-0.1,0-0.1,0-0.2l0-0.1c0-0.1,0-0.1,0-0.2l0,0c0-0.1,0-0.1,0-0.2l0,0
		c0-0.1,0-0.1,0-0.2l0,0c0-0.1,0-0.1,0-0.2l0,0l0,0l0,0c0-0.1,0-0.1,0-0.2l0-0.1c0-0.1,0-0.1,0-0.2l0,0c0-0.1,0-0.1,0.1-0.2l0,0
		c0-0.1,0-0.1,0.1-0.2l0,0c0-0.1,0-0.1,0.1-0.2l0,0l0,0l0,0c0-0.1,0-0.1,0.1-0.2l0,0c0-0.1,0.1-0.1,0.1-0.2l0,0c0-0.1,0-0.1,0.1-0.2
		l0,0c0-0.1,0.1-0.1,0.1-0.2l0,0c0-0.1,0.1-0.1,0.1-0.2l0,0l0,0l0,0c0-0.1,0.1-0.1,0.1-0.2l0-0.1c0-0.1,0.1-0.1,0.1-0.2l0,0
		c0-0.1,0.1-0.1,0.1-0.2l0,0c0-0.1,0.1-0.1,0.1-0.2l0-0.1c0-0.1,0.1-0.1,0.1-0.2l0,0l0,0c0-0.1,0.1-0.1,0.1-0.2l0,0
		c0-0.1,0.1-0.1,0.1-0.2l0,0c0-0.1,0.1-0.1,0.1-0.2l0,0c0-0.1,0.1-0.1,0.1-0.2l0-0.1c0,0,0.1-0.1,0.1-0.1l0,0l0,0l0,0
		c0,0,0.1-0.1,0.1-0.1l0-0.1c0.1-0.1,0.1-0.1,0.2-0.2l0,0c0.1,0,0.1-0.1,0.2-0.1l0,0c0.1-0.1,0.1-0.1,0.2-0.2l0,0
		c0.1,0,0.1-0.1,0.2-0.1l0,0c0.1,0,0.1-0.1,0.2-0.1l0.1,0c0.1,0,0.1-0.1,0.2-0.1l0,0c0.1,0,0.1-0.1,0.2-0.1l0.1,0
		c0.1,0,0.1-0.1,0.2-0.1l0.1,0c0.1,0,0.1-0.1,0.2-0.1l0,0l0,0c0.1,0,0.1-0.1,0.2-0.1l0.1,0c0.1,0,0.1-0.1,0.2-0.1l0.1,0
		c0.1,0,0.1-0.1,0.2-0.1l0.1,0c0.1,0,0.1-0.1,0.2-0.1l0.1,0c0.1,0,0.1-0.1,0.2-0.1l0,0l0,0c0,0,0-0.1-0.1-0.1l0,0
		c0-0.1-0.1-0.1-0.1-0.2l0,0c0-0.1,0-0.1-0.1-0.2l0,0c0-0.1,0-0.1-0.1-0.2l0,0c0-0.1,0-0.1-0.1-0.2l0,0c0-0.1,0-0.2-0.1-0.2l0,0
		c0-0.1,0-0.2-0.1-0.2l0,0l0,0c0-0.1,0-0.2,0-0.2l0,0c0-0.1,0-0.2,0-0.2v0l0,0c0-0.1,0-0.2,0-0.2v0l0,0c0-0.1,0-0.2,0-0.2v0
		c0-0.1,0-0.2,0-0.2v0v0v0c0-0.1,0-0.2,0-0.3C1392.8,679.1,1393.5,677.3,1394.8,675.7z"/>
</g>
<g>
	<g>
		<path class="st16" d="M0,803h1920c0-2.8,0-4.5,0-7.3L0,798C0,802.1,0,799.9,0,803z"/>
		<path class="st16" d="M1920,738H0c0,3.1,0,1.9,0,5h1920C1920,739.3,1920,743.2,1920,738z"/>
		<path class="st16" d="M1920,747H0c0,28,0,34.5,0,48h1920C1920,779.4,1920,772.7,1920,747z"/>
	</g>
	<path class="st17" d="M1920,743H0c0,2.1,0,2.3,0,4h1920C1920,747,1920,745.7,1920,743z"/>
	<path class="st17" d="M0,798l1920-2.3c0,0,0-1.2,0-1.2L0,795C0,797,0,796.3,0,798z"/>
</g>
<g>
	<path class="st13" d="M1214.3,723.2c-1.3,0-2.4-1.1-2.4-2.4c0-1.3,1.1-2.4,2.4-2.4c1.8,0,5.2-1.1,7.9-3.8c1.9-1.9,3.4-4.5,3.8-8.1
		c0.2-1.3,1.3-2.2,2.6-2.1c1.3,0.2,2.2,1.3,2.1,2.6c-0.6,4.8-2.6,8.4-5.2,10.9C1221.8,721.7,1217,723.2,1214.3,723.2z"/>
	<path class="st13" d="M1217.1,737.6c0.8,1.1,0.5,2.5-0.5,3.3c-1.1,0.8-2.5,0.5-3.3-0.5c-2.1-3-3-8.5-2.8-14.6
		c0.2-6.4,1.4-13.7,3.4-19.2c0.4-1.2,1.8-1.9,3-1.4c1.2,0.4,1.9,1.8,1.4,3c-1.8,5.1-2.9,11.7-3.1,17.7
		C1215,731.1,1215.6,735.5,1217.1,737.6z"/>
	<g>
		<path class="st14" d="M1221.8,712L1221.8,712L1221.8,712c0.2,0,0.2,0,0.3,0.1l0.1,0c0.1,0,0.2,0,0.3,0l0,0l0,0c0.1,0,0.2,0,0.3,0
			l0,0l0,0c0.1,0,0.2,0,0.3,0l0,0l0,0c0.1,0,0.2,0,0.3,0l0,0h0c0.1,0,0.2,0,0.3,0l0,0h0l0,0c0.1,0,0.2,0,0.3,0h0c0.1,0,0.2,0,0.3,0
			l0,0h0h0c0.1,0,0.2,0,0.3,0c7.5,0,13.5-4.6,13.5-10.3c0-0.1,0-0.2,0-0.2l0-0.1c0-0.1,0-0.1,0-0.2l0,0c0-0.1,0-0.1,0-0.2l0,0
			c0-0.1,0-0.1,0-0.2l0-0.1c0-0.1,0-0.1,0-0.2l0,0v0l0,0c0-0.1,0-0.1,0-0.2l0,0c0-0.1,0-0.2,0-0.2l0,0c0-0.1,0-0.1-0.1-0.2l0,0
			c0-0.1,0-0.1-0.1-0.2l0,0c0-0.1,0-0.1-0.1-0.2l0,0l0,0c0-0.1,0-0.1-0.1-0.2l0-0.1c0-0.1-0.1-0.1-0.1-0.2l0,0
			c0-0.1-0.1-0.1-0.1-0.2l0,0c0-0.1-0.1-0.1-0.1-0.2l0-0.1c0-0.1-0.1-0.1-0.1-0.2l0,0l0,0l0,0c0-0.1-0.1-0.1-0.1-0.2l0-0.1
			c0-0.1-0.1-0.1-0.1-0.2l0-0.1c0-0.1-0.1-0.1-0.1-0.2l0,0c0-0.1-0.1-0.1-0.1-0.2l0-0.1c0-0.1-0.1-0.1-0.1-0.2l0,0l0,0
			c0-0.1-0.1-0.1-0.1-0.2l0-0.1c0-0.1-0.1-0.1-0.1-0.2l0,0l-0.1-0.2l0,0c0-0.1-0.1-0.1-0.1-0.2l0-0.1c0,0-0.1-0.1-0.1-0.1l-0.1-0.1
			l-0.1-0.1l-0.1-0.1c-0.1-0.1-0.1-0.1-0.2-0.2l0,0c0,0-0.1-0.1-0.1-0.1l-0.1,0c-0.1,0-0.1-0.1-0.2-0.1l-0.1-0.1l-0.1-0.1l-0.1-0.1
			c-0.1,0-0.1-0.1-0.2-0.1l-0.1-0.1l-0.1-0.1l-0.1-0.1l-0.1-0.1l-0.1-0.1c-0.1,0-0.1-0.1-0.2-0.1l-0.1-0.1l-0.1-0.1l-0.1-0.1
			l-0.2-0.1l-0.1,0c-0.1,0-0.1-0.1-0.2-0.1l-0.1,0l-0.1-0.1l-0.1,0c-0.1,0-0.1-0.1-0.2-0.1l-0.1-0.1l-0.2-0.1l0,0l0.1-0.1l0,0
			c0-0.1,0.1-0.1,0.1-0.2l0,0c0-0.1,0.1-0.1,0.1-0.2l0,0c0-0.1,0-0.2,0.1-0.2l0,0c0-0.1,0-0.2,0.1-0.2l0,0l0,0c0-0.1,0-0.1,0.1-0.2
			l0,0c0-0.1,0-0.2,0.1-0.2l0,0c0-0.1,0-0.2,0-0.2l0,0l0,0c0-0.2,0-0.3,0.1-0.5l0,0l0,0v0c0-0.1,0-0.2,0-0.2l0,0v0v0
			c0-0.1,0-0.2,0-0.2l0,0v0v0c0-0.1,0-0.2,0-0.3c0-5.7-6.1-10.3-13.5-10.3c-0.1,0-0.2,0-0.3,0l-0.1,0c-0.1,0-0.2,0-0.3,0l-0.1,0
			c-0.1,0-0.2,0-0.3,0l-0.1,0c-0.1,0-0.2,0-0.2,0l-0.1,0c-0.1,0-0.2,0-0.3,0l0,0l0,0c-0.1,0-0.2,0-0.3,0l-0.1,0l-0.2,0l-0.1,0
			c-0.1,0-0.2,0-0.3,0l-0.1,0c-0.1,0-0.2,0-0.2,0l-0.1,0c-0.1,0-0.2,0-0.3,0l0,0c-0.1,0-0.2,0-0.3,0.1l-0.1,0l-0.2,0l-0.1,0
			c-0.1,0-0.2,0-0.2,0.1l0,0h0l0,0c-0.1,0-0.2,0-0.3,0.1l-0.1,0l-0.2,0.1l-0.1,0c-0.1,0-0.2,0.1-0.2,0.1l-0.1,0l-0.1,0l-0.1,0
			l-0.2,0.1l-0.1,0c-0.1,0-0.2,0.1-0.2,0.1l-0.1,0l-0.1,0.1l-0.1,0c-0.1,0-0.2,0.1-0.2,0.1l-0.1,0l-0.1,0.1l-0.1,0.1l-0.1,0.1
			l-0.1,0.1c-0.1,0-0.1,0.1-0.2,0.1l-0.1,0l-0.2,0.1l-0.1,0l-0.2,0.1l-0.1,0.1l-0.1,0.1l-0.1,0.1l-0.1,0.1l-0.1,0.1l-0.1,0.1
			c-0.1,0-0.1,0.1-0.2,0.1l-0.1,0.1l-0.1,0.1l-0.1,0.1l-0.1,0.1c-0.1,0-0.1,0.1-0.2,0.1l0,0l-0.1,0.1l-0.1,0.1l-0.1,0.1l-0.1,0.1
			c-0.1,0.1-0.1,0.1-0.2,0.2l-0.1,0l-0.1,0.1l-0.1,0l-0.1,0.1c0,0-0.1,0.1-0.1,0.1l-0.1,0.1l-0.1,0.1l-0.1,0.1l0,0
			c-0.1,0.1-0.2,0.3-0.4,0.4l0,0.1c0,0-0.1,0.1-0.1,0.1c0,0.1-0.1,0.1-0.1,0.2c0,0-0.1,0.1-0.1,0.1l0,0l-0.1,0.1l0,0.1
			c-0.1,0.1-0.1,0.2-0.2,0.3l0,0l-0.1,0.1l0,0.1l-0.1,0.1v0l-0.1,0c-7.5,0-13.5,4.6-13.5,10.3c0,0.1,0,0.2,0,0.2l0,0.1
			c0,0.1,0,0.1,0,0.2l0,0.1c0,0.1,0,0.2,0,0.2l0,0.1c0,0.1,0,0.1,0,0.2l0,0.1c0,0.1,0,0.1,0,0.2l0,0.1c0,0.1,0,0.2,0,0.2l0,0
			c0,0.1,0,0.1,0,0.2l0,0.1c0,0.1,0,0.1,0,0.2l0,0c0,0.1,0,0.2,0.1,0.2l0,0c0,0.1,0,0.1,0.1,0.2l0,0.1c0,0.1,0,0.1,0.1,0.2l0,0
			c0,0.1,0.1,0.1,0.1,0.2l0,0.1c0,0.1,0,0.1,0.1,0.2l0,0.1c0,0.1,0.1,0.1,0.1,0.2l0,0l0,0l0,0c0,0.1,0.1,0.1,0.1,0.2l0,0.1
			c0,0.1,0.1,0.1,0.1,0.2l0,0.1c0,0.1,0.1,0.1,0.1,0.2l0,0.1l0.1,0.1l0,0.1l0.1,0.1l0,0.1c0,0.1,0.1,0.1,0.1,0.2l0,0.1
			c0,0,0.1,0.1,0.1,0.1l0.1,0.1c0,0.1,0.1,0.1,0.1,0.2l0,0c0,0.1,0.1,0.1,0.1,0.2l0.1,0.1l0.1,0.1l0.1,0.1l0.1,0.1l0.1,0.1
			c0,0,0.1,0.1,0.1,0.1l0.1,0.1l0.1,0.1l0.1,0.1c0,0,0.1,0.1,0.1,0.1l0.1,0.1l0.1,0.1l0.1,0.1l0.1,0.1l0.1,0.1c0,0,0.1,0.1,0.1,0.1
			l0.1,0.1l0.1,0.1l0.1,0.1l0.1,0.1l0.1,0.1l0,0c0.1,0,0.1,0.1,0.2,0.1l0,0l0.1,0.1l0.1,0.1l0.1,0.1l0.1,0.1c0.1,0,0.1,0.1,0.2,0.1
			l0.1,0.1l0.1,0.1l0.1,0.1l0.1,0.1l0.1,0.1c0.1,0,0.1,0.1,0.2,0.1l0.1,0.1l0.1,0.1l0.1,0.1l0.1,0.1l0.1,0.1c0.1,0,0.2,0.1,0.2,0.1
			l0.1,0l0.1,0.1l0.1,0.1l0.1,0.1l0,0c0.1,0,0.1,0.1,0.2,0.1h0l0.1,0.1l0.1,0l0.2,0.1l0.1,0l0.2,0.1c1.4,4.6,6.8,8,13.2,8
			C1217.4,713.4,1219.8,712.9,1221.8,712L1221.8,712z M1208,684.9l-0.1,0.1C1208,684.9,1208,684.9,1208,684.9z"/>
	</g>
	<g>
		<path class="st15" d="M1237.6,705.5c0.5-1.1,0.8-2.3,0.8-3.5c0-0.1,0-0.2,0-0.2l0-0.1c0-0.1,0-0.1,0-0.2l0,0c0-0.1,0-0.1,0-0.2
			l0,0c0-0.1,0-0.1,0-0.2l0-0.1c0-0.1,0-0.1,0-0.2l0,0v0l0,0c0-0.1,0-0.1,0-0.2l0,0c0-0.1,0-0.2,0-0.2l0,0c0-0.1,0-0.1-0.1-0.2l0,0
			c0-0.1,0-0.1-0.1-0.2l0,0c0-0.1,0-0.1-0.1-0.2l0,0l0,0c0-0.1,0-0.1-0.1-0.2l0-0.1c0-0.1-0.1-0.1-0.1-0.2l0,0
			c0-0.1-0.1-0.1-0.1-0.2l0,0c0-0.1-0.1-0.1-0.1-0.2l0-0.1c0-0.1-0.1-0.1-0.1-0.2l0,0l0,0l0,0c0-0.1-0.1-0.1-0.1-0.2l0-0.1
			c0-0.1-0.1-0.1-0.1-0.2l0-0.1c0-0.1-0.1-0.1-0.1-0.2l0,0c0-0.1-0.1-0.1-0.1-0.2l0-0.1c0-0.1-0.1-0.1-0.1-0.2l0,0l0,0
			c0-0.1-0.1-0.1-0.1-0.2l0-0.1c0-0.1-0.1-0.1-0.1-0.2l0,0l-0.1-0.2l0,0c0-0.1-0.1-0.1-0.1-0.2l0-0.1c0,0-0.1-0.1-0.1-0.1l-0.1-0.1
			l-0.1-0.1l-0.1-0.1c-0.1-0.1-0.1-0.1-0.2-0.2l0,0c0,0-0.1-0.1-0.1-0.1l-0.1,0c-0.1,0-0.1-0.1-0.2-0.1l-0.1-0.1l-0.1-0.1l-0.1-0.1
			c-0.1,0-0.1-0.1-0.2-0.1l-0.1-0.1l-0.1-0.1l-0.1-0.1l-0.1-0.1l-0.1-0.1c-0.1,0-0.1-0.1-0.2-0.1l-0.1-0.1l-0.1-0.1l-0.1-0.1
			l-0.2-0.1l-0.1,0c-0.1,0-0.1-0.1-0.2-0.1l-0.1,0l-0.1-0.1l-0.1,0c-0.1,0-0.1-0.1-0.2-0.1l-0.1-0.1l-0.2-0.1l0,0l0.1-0.1l0,0
			c0-0.1,0.1-0.1,0.1-0.2l0,0c0-0.1,0.1-0.1,0.1-0.2l0,0c0-0.1,0-0.2,0.1-0.2l0,0c0-0.1,0-0.2,0.1-0.2l0,0l0,0c0-0.1,0-0.1,0.1-0.2
			l0,0c0-0.1,0-0.2,0.1-0.2l0,0c0-0.1,0-0.2,0-0.2l0,0l0,0c0-0.2,0-0.3,0.1-0.5l0,0l0,0v0c0-0.1,0-0.2,0-0.2l0,0v0v0
			c0-0.1,0-0.2,0-0.2l0,0v0v0c0-0.1,0-0.2,0-0.3c0-5.7-6.1-10.3-13.5-10.3c-0.1,0-0.2,0-0.3,0l-0.1,0c-0.1,0-0.2,0-0.3,0l-0.1,0
			c-0.1,0-0.2,0-0.3,0l-0.1,0c-0.1,0-0.2,0-0.2,0l-0.1,0c-0.1,0-0.2,0-0.3,0l0,0l0,0c-0.1,0-0.2,0-0.3,0l-0.1,0l-0.2,0l-0.1,0
			c-0.1,0-0.2,0-0.3,0l-0.1,0c-0.1,0-0.2,0-0.2,0l-0.1,0c-0.1,0-0.2,0-0.3,0l0,0c-0.1,0-0.2,0-0.3,0.1l-0.1,0l-0.2,0l-0.1,0
			c-0.1,0-0.2,0-0.2,0.1l0,0h0l0,0c-0.1,0-0.2,0-0.3,0.1l-0.1,0l-0.2,0.1l-0.1,0c-0.1,0-0.2,0.1-0.2,0.1l-0.1,0l-0.1,0l-0.1,0
			l-0.2,0.1l-0.1,0c-0.1,0-0.2,0.1-0.2,0.1l-0.1,0l-0.1,0.1l-0.1,0c-0.1,0-0.2,0.1-0.2,0.1l-0.1,0l-0.1,0.1l-0.1,0.1l-0.1,0.1
			l-0.1,0.1c-0.1,0-0.1,0.1-0.2,0.1l-0.1,0l-0.2,0.1l-0.1,0l-0.2,0.1l-0.1,0.1l-0.1,0.1l-0.1,0.1l-0.1,0.1l-0.1,0.1l-0.1,0.1
			c-0.1,0-0.1,0.1-0.2,0.1l-0.1,0.1l-0.1,0.1l-0.1,0.1l-0.1,0.1c-0.1,0-0.1,0.1-0.2,0.1l0,0l-0.1,0.1l-0.1,0.1l-0.1,0.1l-0.1,0.1
			c-0.1,0.1-0.1,0.1-0.2,0.2l-0.1,0l-0.1,0.1l-0.1,0l-0.1,0.1c0,0-0.1,0.1-0.1,0.1l-0.1,0.1l-0.1,0.1l-0.1,0.1l0,0
			c-0.1,0.1-0.2,0.3-0.4,0.4l0,0.1c0,0-0.1,0.1-0.1,0.1c0,0.1-0.1,0.1-0.1,0.2c0,0-0.1,0.1-0.1,0.1l0,0l-0.1,0.1l0,0.1
			c-0.1,0.1-0.1,0.2-0.2,0.3l0,0l-0.1,0.1l0,0.1l-0.1,0.1v0l-0.1,0c-2.9,0-5.7,0.7-7.9,1.9c-0.5,1.1-0.8,2.3-0.8,3.5
			c0,0.1,0,0.2,0,0.2l0,0.1c0,0.1,0,0.1,0,0.2l0,0.1c0,0.1,0,0.1,0,0.2l0,0.1c0,0.1,0,0.1,0,0.2l0,0.1c0,0.1,0,0.1,0,0.2l0,0.1
			c0,0.1,0,0.2,0,0.2l0,0c0,0.1,0,0.1,0,0.2l0,0.1c0,0.1,0,0.1,0,0.2l0,0c0,0.1,0,0.2,0.1,0.2l0,0c0,0.1,0,0.1,0.1,0.2l0,0.1
			c0,0.1,0,0.1,0.1,0.2l0,0c0,0.1,0.1,0.1,0.1,0.2l0,0.1c0,0.1,0,0.1,0.1,0.2l0,0.1c0,0.1,0.1,0.1,0.1,0.2l0,0l0,0l0,0
			c0,0.1,0.1,0.1,0.1,0.2l0,0.1c0,0.1,0.1,0.1,0.1,0.2l0,0.1c0,0.1,0.1,0.1,0.1,0.2l0,0.1l0.1,0.1l0,0.1l0.1,0.1l0,0.1
			c0,0.1,0.1,0.1,0.1,0.2l0,0.1c0,0,0.1,0.1,0.1,0.1l0.1,0.1c0,0.1,0.1,0.1,0.1,0.2l0,0c0,0.1,0.1,0.1,0.1,0.2l0.1,0.1l0.1,0.1
			l0.1,0.1l0.1,0.1l0.1,0.1c0,0,0.1,0.1,0.1,0.1l0.1,0.1l0.1,0.1l0.1,0.1c0,0,0.1,0.1,0.1,0.1l0.1,0.1l0.1,0.1l0.1,0.1l0.1,0.1
			l0.1,0.1c0,0,0.1,0.1,0.1,0.1l0.1,0.1l0.1,0.1l0.1,0.1l0.1,0.1l0.1,0.1l0,0c0.1,0,0.1,0.1,0.2,0.1l0,0l0.1,0.1l0.1,0.1l0.1,0.1
			l0.1,0.1c0.1,0,0.1,0.1,0.2,0.1l0.1,0.1l0.1,0.1l0.1,0.1l0.1,0.1l0.1,0.1c0.1,0,0.1,0.1,0.2,0.1l0.1,0.1l0.1,0.1l0.1,0.1l0.1,0.1
			l0.1,0.1c0.1,0,0.2,0.1,0.2,0.1l0.1,0l0.1,0.1l0.1,0.1l0.1,0.1l0,0c0.1,0,0.1,0.1,0.2,0.1l0,0l0.1,0.1l0.1,0l0.2,0.1l0.1,0
			l0.2,0.1c1.4,4.6,6.8,8,13.2,8c2.5,0,4.9-0.5,6.9-1.4h0l0.1,0c0.1,0,0.2,0,0.3,0l0.1,0c0.1,0,0.2,0,0.3,0l0,0l0,0
			c0.1,0,0.2,0,0.3,0l0,0l0,0c0.1,0,0.2,0,0.3,0l0,0l0,0c0.1,0,0.2,0,0.3,0l0,0l0,0c0.1,0,0.2,0,0.3,0l0,0l0,0h0c0.1,0,0.2,0,0.3,0
			l0,0c0.1,0,0.2,0,0.3,0h0h0h0c0.1,0,0.2,0,0.3,0C1232.6,707.4,1235.3,706.7,1237.6,705.5L1237.6,705.5z M1208,684.9l-0.1,0.1
			C1208,684.9,1208,684.9,1208,684.9z"/>
	</g>
</g>
<g>
	<rect x="327.4" y="768.8" class="st1" width="24.1" height="3.9"/>
	<rect x="357.8" y="768.8" class="st1" width="24.1" height="3.9"/>
	<rect x="296.9" y="768.8" class="st1" width="24.1" height="3.9"/>
	<rect x="266.5" y="768.8" class="st1" width="24.1" height="3.9"/>
	<rect x="236" y="768.8" class="st1" width="24.1" height="3.9"/>
	<rect x="205.6" y="768.8" class="st1" width="24.1" height="3.9"/>
	<rect x="175.1" y="768.8" class="st1" width="24.1" height="3.9"/>
	<rect x="144.7" y="768.8" class="st1" width="24.1" height="3.9"/>
	<rect x="114.2" y="768.8" class="st1" width="24.1" height="3.9"/>
	<rect x="83.8" y="768.8" class="st1" width="24.1" height="3.9"/>
	<rect x="53.3" y="768.8" class="st1" width="24.1" height="3.9"/>
	<rect x="22.9" y="768.8" class="st1" width="24.1" height="3.9"/>
	<rect y="768.8" class="st1" width="16.5" height="3.9"/>
	<rect x="388.3" y="768.8" class="st1" width="24.1" height="3.9"/>
	<rect x="418.7" y="768.8" class="st1" width="24.1" height="3.9"/>
	<rect x="449.2" y="768.8" class="st1" width="24.1" height="3.9"/>
	<rect x="479.6" y="768.8" class="st1" width="24.1" height="3.9"/>
	<rect x="510.1" y="768.8" class="st1" width="24.1" height="3.9"/>
	<rect x="540.5" y="768.8" class="st1" width="24.1" height="3.9"/>
	<rect x="571" y="768.8" class="st1" width="24.1" height="3.9"/>
	<rect x="601.4" y="768.8" class="st1" width="24.1" height="3.9"/>
	<rect x="631.9" y="768.8" class="st1" width="24.1" height="3.9"/>
	<rect x="662.3" y="768.8" class="st1" width="24.1" height="3.9"/>
	<rect x="692.8" y="768.8" class="st1" width="24.1" height="3.9"/>
	<rect x="723.2" y="768.8" class="st1" width="24.1" height="3.9"/>
	<rect x="753.7" y="768.8" class="st1" width="24.1" height="3.9"/>
	<rect x="784.1" y="768.8" class="st1" width="24.1" height="3.9"/>
	<rect x="814.6" y="768.8" class="st1" width="24.1" height="3.9"/>
	<rect x="845" y="768.8" class="st1" width="24.1" height="3.9"/>
	<rect x="875.5" y="768.8" class="st1" width="24.1" height="3.9"/>
	<rect x="905.9" y="768.8" class="st1" width="24.1" height="3.9"/>
	<rect x="936.4" y="768.8" class="st1" width="24.1" height="3.9"/>
	<rect x="966.8" y="768.8" class="st1" width="24.1" height="3.9"/>
	<rect x="997.3" y="768.8" class="st1" width="24.1" height="3.9"/>
	<rect x="1027.7" y="768.8" class="st1" width="24.1" height="3.9"/>
	<rect x="1058.2" y="768.8" class="st1" width="24.1" height="3.9"/>
	<rect x="1088.6" y="768.8" class="st1" width="24.1" height="3.9"/>
	<rect x="1119.1" y="768.8" class="st1" width="24.1" height="3.9"/>
	<rect x="1149.5" y="768.8" class="st1" width="24.1" height="3.9"/>
	<rect x="1180" y="768.8" class="st1" width="24.1" height="3.9"/>
	<rect x="1210.4" y="768.8" class="st1" width="24.1" height="3.9"/>
	<rect x="1240.9" y="768.8" class="st1" width="24.1" height="3.9"/>
	<rect x="1271.3" y="768.8" class="st1" width="24.1" height="3.9"/>
	<rect x="1301.8" y="768.8" class="st1" width="24.1" height="3.9"/>
	<rect x="1332.2" y="768.8" class="st1" width="24.1" height="3.9"/>
	<rect x="1362.7" y="768.8" class="st1" width="24.1" height="3.9"/>
	<rect x="1393.1" y="768.8" class="st1" width="24.1" height="3.9"/>
	<rect x="1423.6" y="768.8" class="st1" width="24.1" height="3.9"/>
	<rect x="1454" y="768.8" class="st1" width="24.1" height="3.9"/>
	<rect x="1484.5" y="768.8" class="st1" width="24.1" height="3.9"/>
	<rect x="1514.9" y="768.8" class="st1" width="24.1" height="3.9"/>
	<rect x="1545.4" y="768.8" class="st1" width="24.1" height="3.9"/>
	<rect x="1575.8" y="768.8" class="st1" width="24.1" height="3.9"/>
	<rect x="1606.3" y="768.8" class="st1" width="24.1" height="3.9"/>
	<rect x="1636.7" y="768.8" class="st1" width="24.1" height="3.9"/>
	<rect x="1667.2" y="768.8" class="st1" width="24.1" height="3.9"/>
	<rect x="1697.6" y="768.8" class="st1" width="24.1" height="3.9"/>
	<rect x="1728.1" y="768.8" class="st1" width="24.1" height="3.9"/>
	<rect x="1758.5" y="768.8" class="st1" width="24.1" height="3.9"/>
	<rect x="1789" y="768.8" class="st1" width="24.1" height="3.9"/>
	<rect x="1819.4" y="768.8" class="st1" width="24.1" height="3.9"/>
	<rect x="1849.9" y="768.8" class="st1" width="24.1" height="3.9"/>
	<rect x="1880.3" y="768.8" class="st1" width="24.1" height="3.9"/>
	<rect x="1910.8" y="768.8" class="st1" width="9.2" height="3.9"/>
	<path class="st1" d="M1545.4,768.8h2.3c0,0.6,0.1,1.3,0.1,1.9v0c0,0.7,0,1.3-0.1,1.9h-2.3V768.8z"/>
</g>
<g>
	<path class="st18" d="M532.8,726.8h19.6c8.4,0,16.8,10.3,24.4,15.2c5.4,3.5,8.3,3.5,11.2,4.2c4.2,1,6.6,3.7,7.7,5.9
		c1.1,2.1,1.6,7.1,1.6,9.5c0,2.7-1.8,3.9-3.6,3.9l-83.4,0c-1.8,0-2.7-2.2-2.8-3.9c-0.2-2.8-0.6-8,0-10.8
		C509.5,741.6,516.8,726.8,532.8,726.8z"/>
	<path class="st19" d="M597.3,761.6c0-0.3,0-0.7,0-1.1l-89.9-1.2c0.1,0.8,0.1,1.7,0.2,2.3c0.2,1.8,1,3.9,2.8,3.9l83.4,0
		C595.5,765.5,597.3,764.3,597.3,761.6z"/>
	<path class="st19" d="M514.6,765.5c0-8.6,5.4-12,12-12c6.6,0,12,3.4,12,12L514.6,765.5z"/>
	<circle class="st20" cx="526.5" cy="765.7" r="9.4"/>
	<ellipse class="st21" cx="526.5" cy="765.7" rx="6.3" ry="6.3"/>
	<path class="st19" d="M565.1,765.5c0-8.6,5.4-12,12-12c6.6,0,12,3.4,12,12L565.1,765.5z"/>
	<circle class="st20" cx="577" cy="765.7" r="9.4"/>
	<circle class="st21" cx="577" cy="765.7" r="6.3"/>
	<path class="st22" d="M553.5,729.1c0,0,11.4,2,18.3,14.9l-18.3,0V729.1z"/>
	<rect x="532" y="729.1" class="st22" width="19.3" height="14.9"/>
	<path class="st22" d="M529.9,729.1V744c0,0-9.2,0-14.6,0C509.7,744,519.1,729.5,529.9,729.1z"/>
	<path class="st19" d="M555,746.6c0,0.4-0.3,0.7-0.7,0.7l-2.5,0c-0.4,0-0.7-0.3-0.7-0.7v-0.5c0-0.4,0.3-0.7,0.7-0.7l2.5,0
		c0.4,0,0.7,0.3,0.7,0.7V746.6z"/>
	<path class="st19" d="M534.9,746.6c0,0.4-0.3,0.7-0.7,0.7l-2.5,0c-0.4,0-0.7-0.3-0.7-0.7v-0.5c0-0.4,0.3-0.7,0.7-0.7l2.5,0
		c0.4,0,0.7,0.3,0.7,0.7L534.9,746.6z"/>
	<path class="st19" d="M574,744.5c-0.1,0.5-0.6,0.9-1.1,0.8l-3.3-0.5c-0.5-0.1-0.9-0.6-0.8-1.1l0.1-0.7c0.1-0.5,0.6-0.9,1.1-0.8
		l3.3,0.5c0.5,0.1,0.9,0.6,0.8,1.1L574,744.5z"/>
	<path class="st23" d="M593.2,749c-1.2,0.7-2,2.1-2,3.7c0,2.4,1.8,4.3,3.9,4.3c0.6,0,1.2-0.2,1.8-0.5c-0.3-1.7-0.7-3.4-1.2-4.4
		C595.2,751.1,594.3,750,593.2,749z"/>
</g>
</svg>
